<?xml version="1.0" encoding="UTF-8"?>
<svg width="588px" height="301px" viewBox="0 0 588 301" version="1.1" xmlns="http://www.w3.org/2000/svg" xmlns:xlink="http://www.w3.org/1999/xlink">
    <!-- Generator: Sketch 53.2 (72643) - https://sketchapp.com -->
    <title>Ignitus mkt</title>
    <desc>Created with Sketch.</desc>
    <g id="Ignitus-mkt" stroke="none" stroke-width="1" fill="none" fill-rule="evenodd">
        <rect fill="#FFFFFF" x="0" y="0" width="588" height="301"></rect>
        <g id="Group" transform="translate(112.000000, 106.000000)">
            <text id="Ignitus" font-family="AmericanTypewriter, American Typewriter" font-size="77" font-weight="normal" letter-spacing="2.053332" fill="#000000">
                <tspan x="0.952338" y="70">Ignitus</tspan>
            </text>
            <g id="line-chart" transform="translate(284.000000, 0.000000)" fill="#4A90E2" fill-rule="nonzero">
                <path d="M5,55.145664 L5,68.5094851 C5,69.3224932 5.64503817,70 6.45547074,70 L16.5445293,70 C17.3384224,70 18,69.3394309 18,68.5094851 L18,45 L10.673028,52.5033875 C9.11832061,54.0785908 7.13358779,54.9932249 5,55.145664 Z" id="Path"></path>
                <path d="M24,44 L24,67.5195155 C24,68.3270525 24.6450382,69 25.4554707,69 L35.5445293,69 C36.3384224,69 37,68.3438762 37,67.5195155 L37,53.6736205 C34.7010178,53.6231494 32.5508906,52.6978466 30.9300254,51.0491252 L24,44 Z" id="Path"></path>
                <path d="M42,53.0560272 L42,68.5059423 C42,69.3208829 42.6450382,70 43.4554707,70 L53.5445293,70 C54.3384224,70 55,69.3378608 55,68.5059423 L55,40 L43.4389313,51.8675722 C42.9923664,52.3259762 42.5127226,52.7164686 42,53.0560272 Z" id="Path"></path>
                <path d="M71.024173,23 L59,35.2075741 L59,68.5223294 C59,69.3283315 59.6450382,70 60.4554707,70 L70.5445293,70 C71.3384224,70 72,69.3451233 72,68.5223294 L72,23.9235441 C71.6692112,23.638085 71.4211196,23.3862094 71.2391858,23.2182922 L71.024173,23 Z" id="Path"></path>
                <path d="M80.310715,0.792045838 C79.8281185,0.269632626 79.0959031,0 78.1639927,0 C78.0807864,0 77.9809388,0 77.8977325,0 C73.171615,0.219076508 68.4621388,0.455005056 63.7360213,0.674081564 C63.1036534,0.707785642 62.238308,0.74148972 61.5560164,1.43242332 C61.33968,1.65149983 61.1732674,1.90428042 61.0401373,2.20761712 C60.3412045,3.74115268 61.3230387,4.73542299 61.788994,5.20728008 L62.9705234,6.4206269 C63.785945,7.26322885 64.618008,8.10583081 65.4500709,8.93158072 L36.8936708,37.8665319 L24.0632602,24.8736097 C23.2977623,24.0984159 22.2660043,23.6602629 21.1676812,23.6602629 C20.0693581,23.6602629 19.0542413,24.0984159 18.2887434,24.8736097 L1.19817063,42.1638018 C-0.399390212,43.7815976 -0.399390212,46.3936636 1.19817063,48.0114594 L1.96366854,48.7866532 C2.72916645,49.561847 3.76092449,50 4.85924757,50 C5.95757066,50 6.97268744,49.561847 7.73818535,48.7866532 L21.1676812,35.1870576 L33.9980918,48.1799798 C34.7635897,48.9551736 35.7953477,49.3933266 36.8936708,49.3933266 C37.9919939,49.3933266 39.0071107,48.9551736 39.7892498,48.1799798 L72.0067269,15.5544321 L75.6511626,19.2281766 C76.0838353,19.6663296 76.6829206,20.273003 77.5981899,20.273003 C77.9809388,20.273003 78.3636878,20.1718908 78.763078,19.9528143 C79.0293381,19.8011459 79.2623157,19.6326255 79.4620108,19.4304011 C80.177585,18.7057634 80.310715,17.7789012 80.3439976,17.0542636 C80.4771276,13.9534884 80.626899,10.8527132 80.7766703,7.73508595 L80.9930067,3.06707112 C81.0429304,2.08965285 80.8265941,1.33131109 80.310715,0.792045838 Z" id="Path"></path>
            </g>
        </g>
    </g>
</svg>