<?xml version="1.0" standalone="no"?>
<!DOCTYPE svg PUBLIC "-//W3C//DTD SVG 20010904//EN"
 "http://www.w3.org/TR/2001/REC-SVG-20010904/DTD/svg10.dtd">
<svg version="1.0" xmlns="http://www.w3.org/2000/svg"
 width="1179.000000pt" height="1179.000000pt" viewBox="0 0 1179.000000 1179.000000"
 preserveAspectRatio="xMidYMid meet">
<metadata>
Created by potrace 1.15, written by Peter Selinger 2001-2017
</metadata>
<g transform="translate(0.000000,1179.000000) scale(0.100000,-0.100000)"
fill="#000000" stroke="none">
<path d="M10 5895 l0 -5875 5885 0 5885 0 0 5875 0 5875 -5885 0 -5885 0 0
-5875z m5625 4379 c24 -9 100 -122 124 -182 28 -71 39 -123 51 -240 11 -108
24 -154 46 -173 25 -20 38 5 40 78 2 37 7 69 12 71 29 9 115 -146 153 -273 26
-90 36 -254 19 -326 -23 -97 -76 -184 -142 -230 -39 -28 -53 -14 -33 34 37 90
7 235 -75 361 -56 86 -101 172 -120 229 -8 25 -16 35 -22 29 -5 -5 -39 -94
-75 -198 -61 -174 -66 -196 -67 -274 0 -72 3 -94 27 -144 15 -32 25 -61 22
-64 -18 -18 -102 51 -151 125 -51 77 -74 157 -74 257 0 113 19 178 99 341 38
77 81 177 95 222 29 93 50 247 43 310 -6 52 -2 58 28 47z m-1076 -699 c61
-141 210 -316 377 -442 208 -158 312 -351 284 -531 -12 -75 -48 -155 -72 -160
-12 -2 -16 11 -20 68 -9 121 -44 178 -234 370 l-162 165 5 -102 c3 -59 1 -140
-6 -191 -20 -146 9 -267 83 -349 46 -51 47 -68 4 -59 -100 20 -224 118 -286
228 -63 110 -102 262 -102 396 0 81 14 152 30 152 5 0 23 -26 39 -58 32 -64
54 -87 72 -77 19 12 4 93 -36 196 -61 156 -76 255 -54 361 22 105 43 114 78
33z m2277 -45 c18 -88 8 -191 -27 -287 -11 -32 -32 -87 -45 -123 -24 -67 -31
-134 -15 -145 15 -8 59 45 77 93 17 44 37 54 49 25 14 -35 17 -169 6 -240 -33
-210 -128 -381 -259 -464 -51 -32 -148 -66 -158 -56 -4 4 10 25 31 48 20 23
49 67 64 98 26 56 26 57 26 302 l0 246 -44 -39 c-24 -21 -99 -96 -166 -167
-147 -155 -178 -209 -184 -319 -3 -61 -6 -73 -20 -70 -22 4 -59 83 -73 156
-31 169 72 374 262 518 94 71 243 218 300 294 27 37 68 104 91 149 49 99 61
96 85 -19z m-3913 -596 c147 -88 325 -146 557 -183 70 -11 157 -30 195 -42
232 -71 408 -237 422 -400 7 -72 -4 -75 -48 -15 -84 118 -160 150 -664 283
-15 4 -12 -4 16 -33 55 -60 92 -112 143 -201 83 -145 193 -243 303 -273 26 -7
52 -17 57 -21 18 -16 -50 -30 -141 -30 -108 0 -189 24 -311 93 -94 53 -284
236 -324 313 -53 103 -47 116 32 65 58 -37 110 -50 110 -27 0 22 -57 77 -129
127 -146 99 -248 206 -292 308 -20 47 -25 82 -10 82 5 0 43 -21 84 -46z m5567
18 c0 -40 -66 -148 -132 -218 -39 -40 -112 -103 -164 -140 -130 -92 -181 -154
-128 -154 19 0 110 46 119 60 10 16 35 12 35 -5 0 -28 -48 -109 -104 -177
-111 -134 -292 -256 -432 -293 -98 -25 -300 -15 -268 14 5 5 32 16 61 25 73
24 161 84 209 142 22 27 66 92 97 144 30 52 78 122 106 154 28 33 49 61 48 63
-8 7 -448 -120 -502 -146 -65 -30 -152 -103 -174 -145 -17 -31 -51 -35 -51 -7
0 11 8 46 19 79 48 155 201 288 404 351 37 11 134 32 215 45 235 40 394 92
542 180 83 50 100 55 100 28z m-3990 -854 c1 -148 68 -334 191 -523 73 -114
106 -185 124 -272 25 -118 15 -202 -37 -310 -32 -66 -123 -162 -138 -147 -5 5
0 33 10 64 22 62 25 145 9 205 -16 60 -182 417 -189 408 -4 -5 -13 -30 -20
-58 -7 -27 -41 -111 -76 -185 -90 -190 -102 -278 -53 -389 23 -53 23 -51 0
-51 -26 0 -96 58 -136 114 -79 111 -103 275 -66 456 28 132 89 270 122 270 4
0 11 -26 14 -57 4 -32 14 -69 22 -82 14 -22 16 -22 31 -7 13 13 18 48 23 174
4 86 13 180 19 207 27 107 101 235 136 235 10 0 14 -14 14 -52z m2418 -60 c47
-92 54 -129 62 -303 7 -169 17 -215 45 -215 21 0 28 17 34 83 3 34 11 62 18
64 19 7 71 -83 97 -167 81 -259 44 -488 -101 -621 -30 -27 -63 -49 -74 -49
-23 0 -23 -6 1 58 26 69 27 179 1 253 -10 30 -39 95 -64 144 -25 50 -54 119
-63 155 -10 36 -20 69 -24 73 -8 9 -142 -267 -176 -363 -30 -84 -32 -180 -4
-252 24 -64 24 -58 1 -58 -23 0 -102 84 -130 138 -50 98 -63 216 -36 328 20
84 52 153 119 257 112 171 176 339 192 499 3 40 9 77 12 82 7 13 63 -53 90
-106z m-1246 60 c80 -97 121 -211 138 -386 11 -105 27 -163 50 -177 22 -13 34
14 36 82 2 37 7 69 12 71 29 9 121 -159 158 -288 26 -90 26 -284 1 -356 -24
-69 -70 -137 -118 -175 -49 -39 -66 -29 -44 24 21 50 19 142 -5 219 -11 35
-47 106 -80 157 -33 52 -74 130 -92 173 -18 43 -36 74 -40 70 -11 -11 -123
-329 -138 -393 -17 -69 -6 -161 26 -227 14 -29 23 -56 20 -60 -12 -11 -77 31
-113 73 -20 22 -52 74 -71 115 -32 66 -37 85 -40 170 -5 128 12 192 97 365 39
77 81 177 95 222 29 94 50 247 43 310 -7 69 15 72 65 11z m-3112 -473 c147
-90 328 -150 542 -180 62 -8 147 -25 188 -36 236 -64 406 -226 418 -400 3 -37
0 -59 -6 -59 -6 0 -26 22 -46 49 -75 101 -154 140 -438 214 -115 29 -208 51
-208 48 1 -3 23 -35 50 -71 27 -36 71 -105 97 -155 78 -146 180 -240 301 -276
23 -7 42 -16 42 -21 0 -32 -179 -41 -275 -14 -138 40 -281 138 -391 268 -77
91 -137 208 -105 208 4 0 39 -16 76 -35 49 -26 71 -33 79 -25 20 20 -17 62
-124 143 -131 98 -151 117 -207 195 -53 74 -95 192 -68 192 2 0 36 -20 75 -45z
m6280 15 c0 -30 -33 -111 -63 -155 -43 -64 -116 -133 -212 -205 -86 -64 -145
-121 -145 -141 0 -20 59 -7 110 25 32 21 59 31 64 26 21 -21 -51 -143 -139
-239 -151 -162 -325 -251 -494 -251 -79 0 -155 15 -146 29 2 5 28 16 57 26
121 38 205 118 283 266 28 51 74 124 103 161 28 38 52 70 52 72 0 6 -361 -88
-426 -110 -102 -34 -190 -98 -234 -169 -12 -19 -25 -35 -30 -35 -14 0 -18 37
-9 87 23 123 119 240 257 311 94 49 189 76 340 97 216 30 402 91 545 180 40
24 75 44 80 45 4 0 7 -9 7 -20z m-4523 -1011 c63 -31 91 -73 118 -182 70 -285
223 -495 470 -648 l80 -50 5 214 5 214 30 49 c59 95 202 142 333 110 90 -22
140 -58 175 -125 l27 -55 0 -2205 0 -2206 -25 -52 c-18 -39 -36 -60 -71 -83
-71 -45 -106 -53 -208 -48 -102 5 -149 23 -203 80 -62 64 -58 -60 -63 1832
l-5 1738 -90 32 c-395 143 -742 442 -906 783 -72 150 -103 257 -103 358 -1 82
1 94 27 132 77 120 275 174 404 112z m2914 1 c90 -28 151 -76 184 -145 25 -50
27 -63 22 -125 -7 -80 -60 -247 -113 -352 -163 -326 -480 -603 -864 -757
l-125 -50 -5 -1738 -5 -1738 -22 -42 c-51 -95 -144 -138 -282 -131 -74 3 -95
9 -142 35 -31 17 -67 48 -84 72 l-30 43 -3 2216 c-2 1593 0 2228 8 2255 15 53
71 110 133 138 40 18 71 23 137 23 77 1 92 -2 151 -31 120 -59 139 -113 139
-389 l0 -173 52 30 c182 108 320 249 411 421 33 62 67 158 102 290 38 142 171
200 336 148z m-3907 -455 c89 -19 182 -63 235 -110 50 -45 39 -61 -23 -37 -30
12 -74 16 -161 16 l-120 -1 -220 -72 c-121 -40 -224 -76 -229 -79 -6 -3 31
-16 81 -28 50 -12 137 -41 193 -63 120 -48 191 -67 280 -76 60 -5 97 0 218 32
65 16 -25 -80 -119 -127 -156 -79 -394 -89 -644 -25 -91 23 -195 68 -195 84 0
4 33 11 73 14 82 6 109 14 104 31 -7 22 -75 35 -192 35 -148 1 -290 22 -381
56 -74 28 -144 69 -144 85 0 6 25 10 56 10 168 0 391 57 609 155 77 34 156 68
177 74 125 40 286 51 402 26z m4968 -9 c94 -19 159 -42 294 -104 188 -88 364
-134 557 -148 53 -4 97 -11 97 -15 0 -15 -103 -69 -180 -93 -92 -29 -221 -46
-360 -46 -204 0 -261 -51 -75 -67 41 -3 75 -9 75 -14 0 -15 -113 -61 -207 -85
-302 -76 -592 -39 -732 94 -65 61 -55 74 34 46 65 -21 193 -20 274 1 35 9 107
34 160 55 97 39 238 80 275 80 43 0 -6 20 -219 90 -258 85 -344 97 -479 65
-42 -10 -79 -15 -82 -12 -11 11 70 76 135 107 119 58 281 75 433 46z m-4401
-974 c73 -25 73 -39 -3 -47 -154 -16 -212 -46 -424 -217 -95 -76 -176 -143
-180 -149 -5 -9 1 -10 22 -4 16 5 130 9 254 10 275 3 347 17 453 92 73 52 85
41 45 -45 -74 -159 -321 -282 -631 -313 -114 -12 -217 -4 -224 16 -2 6 19 19
47 29 52 19 100 51 100 67 0 22 -99 7 -228 -35 -75 -25 -168 -50 -206 -57
-121 -21 -344 1 -310 30 5 4 41 20 79 36 166 69 278 148 455 320 74 72 157
146 183 164 71 48 183 97 262 115 87 20 231 14 306 -12z m3841 3 c79 -17 190
-65 265 -116 27 -18 107 -90 178 -160 72 -70 166 -153 210 -184 75 -54 232
-138 306 -164 42 -15 30 -28 -40 -41 -127 -24 -260 -7 -464 58 -142 46 -186
55 -207 42 -23 -14 13 -47 82 -71 108 -40 66 -54 -136 -46 -172 6 -296 36
-432 102 -109 53 -192 125 -228 197 -43 85 -33 109 27 64 109 -82 187 -98 477
-100 129 -2 244 -6 254 -11 40 -18 1 18 -168 153 -94 76 -198 151 -230 166
-63 30 -169 56 -228 56 -50 0 -48 14 5 35 92 37 212 44 329 20z"/>
</g>
</svg>
